PathFileType	4	(X/Y/Z)	trial_0_0-299.trc
DataRate	CameraRate	NumFrames	NumMarkers	Units	OrigDataRate	OrigDataStartFrame	OrigNumFrames
60	60	9	21	m	60	261	299
Frame#	Time	RHip			RKnee			RAnkle			RBigToe			RSmallToe			RHeel			LHip			LKnee			LAnkle			LBigToe			LSmallToe			LHeel			Neck			Head			Nose			RShoulder			RElbow			RWrist			LShoulder			LElbow			LWrist		
		X1	Y1	Z1	X2	Y2	Z2	X3	Y3	Z3	X4	Y4	Z4	X5	Y5	Z5	X6	Y6	Z6	X7	Y7	Z7	X8	Y8	Z8	X9	Y9	Z9	X10	Y10	Z10	X11	Y11	Z11	X12	Y12	Z12	X13	Y13	Z13	X14	Y14	Z14	X15	Y15	Z15	X16	Y16	Z16	X17	Y17	Z17	X18	Y18	Z18	X19	Y19	Z19	X20	Y20	Z20	X21	Y21	Z21
262	4.366666666666666	1.3627035234246967	1.1476387666908712	0.4539364763030257	1.8324951650263788	1.0506779380943507	0.4443292288526747	2.1479848518625193	0.9274966254316935	0.3548549847930187	2.436357328848686	1.1280520845618331	0.3320655508261011	2.4080353990095547	1.097076326399076	0.4307896681521729	2.1379563968375632	0.8851453677866686	0.34651053542158367	1.3638120302526944	1.2069571098296732	0.18037029465086313	1.78942640985424	1.0797000567678527	0.17337417985849365	2.0911297102046325	0.8552616823192107	0.16567603617004595	2.4720555685555716	1.2085732977189552	0.16605570150796914	2.363760953130443	1.103437618039506	0.10311405817916458	2.074636198822885	0.7312851736445981	0.17935466791924926	0.6949847329379638	1.2215370146367155	0.4109081018212159	0.35641818465615444	1.550910859811488	0.5050876482379045	0.6199204528835842	1.8026233082503487	0.5009822175329135	0.7824363385175225	1.120931953534637	0.5886852976893172	1.1071677757168923	1.1106370984524165	0.5923242494317315	1.558140289356708	1.7479428718026015	0.5029981536509432	0.7337911438914227	1.2818771884091795	0.1956328653164637	1.0866803487151135	1.2475529530225864	0.0847127601139575	1.5458148748317	1.6935859622727436	0.21149891858659048
263	4.383333333333334	1.3626908794219152	1.148027077593666	0.4541378867709523	1.83578835956376	1.0462456556628112	0.4450456774754984	2.145661706836011	0.9303354399162127	0.355305603992442	2.4594409825214902	1.163049239304682	0.3406586058366188	2.4138472970755704	1.0965968560514863	0.4304805399204864	2.1416418972005515	0.8887103448170831	0.3465712048011257	1.36961616317702	1.2078868060476755	0.17969600612045186	1.7912311245303851	1.080236291685165	0.17424036713541055	2.0822837834640957	0.8596269789392843	0.16497364748870252	2.472969294822663	1.2105282112895956	0.16560491610931605	2.3567087118815846	1.101424692531164	0.10172010405317194	2.065945796129026	0.7182227166617808	0.18282069742191479	0.6950907951895094	1.2199778179375347	0.41068808527237566	0.35655209271647287	1.5036464478790383	0.4949686470983339	0.6156335346610271	1.7577728285697742	0.4903715250478522	0.7711740750422518	1.11932066527777	0.5884622612444823	1.1007575022207463	1.1200510273421271	0.5909880755603436	1.549403220282748	1.7697624956307039	0.48683955231120274	0.7332416953166847	1.282926110136859	0.19565152850784803	1.0863241550624545	1.2892428511527672	0.09128014450675617	1.5125876978920252	1.6376833455917073	0.22411006009335446
264	4.4	1.3611238077256456	1.1449192975650373	0.45498976502292876	1.8223055167911402	1.0419927349255769	0.4462887751910073	2.1463028133725532	0.9310567574402541	0.3550380132938361	2.4334690736549267	1.1283468780776633	0.33174351447234196	2.407579622451136	1.096195622967202	0.42995652860776273	2.154405812632412	0.9012784158560115	0.34255829758953094	1.3692281286774828	1.2066652895216043	0.1799054994685275	1.7957814956677909	1.078425037562665	0.17446050997905918	2.0915281059479343	0.8585040338247694	0.16379420720811877	2.4891278661937197	1.2369664925651143	0.15935497047640856	2.358625688503592	1.1050241055355168	0.10020276589360574	2.0798119405772115	0.7340045699360175	0.1788789772765766	0.6860308339692955	1.1835299628147673	0.400797110357552	0.35170368007009334	1.4544287463444023	0.4858653419798795	0.6082374936686714	1.7572811297067557	0.4886967368313359	0.7686224782069202	1.1408191503440175	0.5857543590107209	1.0896062682214327	1.1210430155547275	0.589740181614736	1.5290063329391435	1.7925540310202779	0.4835274831733333	0.7333135678862945	1.2832784288341972	0.1949691273796718	1.1019155278681774	1.3354345089105473	0.09710148080032872	1.5055883973267998	1.664060153655114	0.24014643973012786
265	4.416666666666667	1.356231316060607	1.1126575116918314	0.4606474339503286	1.8255646220911244	1.0665066446229552	0.4405555852035526	2.159191402103234	0.9338395616468262	0.35374064512971415	2.4458236656452295	1.1481192808323766	0.34466234396504775	2.415411620541476	1.093713600899346	0.43294646590956976	2.1289923893636837	0.8578101460691518	0.3403726964526212	1.3629671330249107	1.2092989145105455	0.17874550568366515	1.7868733536718389	1.0716878421138591	0.17373510104943762	2.088481300565801	0.860555076888428	0.16570715108915968	2.473623189531142	1.213235101418014	0.1652859055742468	2.355326874808885	1.0962342097025268	0.10215645022426974	2.0606003979432717	0.7052394579586257	0.17324621357321376	0.6803675682689186	1.1783409622438294	0.40069727045720704	0.3507050292098111	1.413384204863667	0.4769445602202871	0.6025004001637105	1.7577727041399855	0.48648283117570557	0.7685806792519441	1.1435915025225858	0.5852861115996226	1.094703357353993	1.1183176941464175	0.590184931272532	1.496913754484776	1.716811017267225	0.4795415187608883	0.7333936855254661	1.284929526484547	0.1941962567017316	1.1186753810159162	1.3938218110394536	0.10150408842197141	1.4952483230529559	1.620699451278491	0.2600674544490541
266	4.433333333333334	1.3596828863767019	1.1254124543815576	0.460667350842885	1.8210666840214824	1.0638235238687606	0.4415920056021679	2.152780306847243	0.9318907249382935	0.3545584962305459	2.455861784429399	1.162952842081003	0.342105294483817	2.4185506066802542	1.0920832799550906	0.4319736637862621	2.147874009870851	0.8889800728241286	0.3474791998342204	1.3710681889818894	1.2326696890414186	0.17283497504448178	1.7884808854737486	1.0721720446035956	0.17488429326662852	2.088583792011541	0.8603356014828923	0.1658326582463215	2.467991215443439	1.1880243136062614	0.1726160751659803	2.353595255300485	1.0895654051933104	0.10277231929674484	2.070232612410279	0.7183457730030488	0.18265571833986943	0.6792642615043288	1.1617783891372968	0.39006332841117736	0.3510402749425397	1.4252639013958948	0.47142089278775867	0.5853658218514382	1.7014950698702695	0.47444515424846206	0.7596376404947205	1.1230786005331435	0.5731140624501568	1.1028260145441036	1.1575380750432276	0.5849697194714801	1.475986963375672	1.6813398015268202	0.48122624085396337	0.7395432009697632	1.2844631042249945	0.1943957841187545	1.1157056083777113	1.3537960043742345	0.09568580659497065	1.4946003752150994	1.6391208594948043	0.27731361489429013
267	4.45	1.381717670418731	1.178671307571718	0.464707008204008	1.828779125371312	1.0686094274542448	0.4406645403336874	2.1420049976841216	0.9132624842232775	0.3580316578110854	2.454757114234768	1.1613200915440383	0.3425957795880912	2.4139970530541954	1.0909939942097544	0.43350271304333077	2.1284288587350058	0.8565047033709273	0.34060547252074735	1.3781387014693598	1.2355642200030568	0.17159266427559064	1.7875502886620411	1.0544922061025757	0.18100064790742043	2.102570943176615	0.8758256283330451	0.160526508885359	2.4702506043905585	1.205801982863562	0.16651588858035427	2.360820830810934	1.0934670414504901	0.1039373663587412	2.064091717793342	0.714713912559509	0.18382617381883876	0.6796435489924257	1.1615046700539218	0.3887388227151916	0.35246955897493043	1.4062341420681412	0.4610168825315844	0.5826902116368992	1.6625403146663675	0.4587156472780781	0.7623868787924005	1.146978756548397	0.5713380725421948	1.0976397548421524	1.1579731658576575	0.5833798788508264	1.4764953149459519	1.7097637333322113	0.4747224745953434	0.740458580796338	1.2990437999151512	0.18935652060914013	1.1293612056544338	1.4222111991659567	0.09793810735244912	1.4845658503204788	1.6755037451957753	0.29333199915577735
268	4.466666666666667	1.3647632508322358	1.158412158763827	0.45475434774966494	1.814851854904501	1.0576126935047974	0.4437037084246611	2.151104560562628	0.9282692345921318	0.35517464791670605	2.4532801949958705	1.1579305872934438	0.34289846928238266	2.416983851776782	1.0891203883216387	0.43254082607857297	2.1498765073033135	0.883504222650589	0.3469963080794424	1.3779368267654488	1.2273697166501563	0.1741432128417266	1.7831370820537578	1.0526200096389686	0.1823196895890787	2.095796140014862	0.8743605392922833	0.16129133525654016	2.4709937375899633	1.206133774767683	0.16620523603033627	2.3528490295997577	1.0876492600239904	0.10307551300004342	2.0803799947305976	0.7416753551232231	0.17561129382761484	0.678362823507729	1.1923247002489779	0.381793450804933	0.34699637425325025	1.4438148784462446	0.4522244670366904	0.5797945427606522	1.6188089549552056	0.4479453692033253	0.7601644351289514	1.1704672439134691	0.5682297339287933	1.09367192744932	1.1658534190401484	0.5849905522760731	1.4453551828947289	1.6238914534433928	0.4548133767615559	0.7341846072294361	1.297401861638088	0.18939671247499354	1.129828159178967	1.4663255019628934	0.09040765558656759	1.4784658429419624	1.7428172738025602	0.3066048030539502
269	4.483333333333333	1.3715692314193446	1.1630994257628073	0.4536493889149554	1.8082649004232998	1.0579787021493536	0.44289071506238287	2.145412207356175	0.9285963354495728	0.355709455621682	2.4524774038959998	1.1556834170750894	0.34252772535804965	2.4098448176325022	1.0869683127547647	0.4329187014297322	2.1496656339930214	0.8812031827266947	0.3471532864434225	1.3844973051045109	1.2339868217621435	0.172538830584874	1.7778276319648518	1.0417744116797254	0.18218268140816146	2.0895007715478315	0.8726598081393085	0.1603247659614053	2.4628207299435267	1.20115300642377	0.16690672393298273	2.327638948577412	1.0448218893588033	0.09829143627032548	2.085898377466958	0.7420751041197511	0.17518631374725485	0.6810308915563759	1.1987465896289389	0.38156303342502745	0.3409417852154062	1.4437038439957934	0.4499746701627017	0.5806080859727203	1.6138516433715009	0.44588077705195517	0.7582866046631512	1.1898028504541727	0.5654604679016435	1.096409960667579	1.185925346413443	0.5811825699525105	1.4283711295248613	1.5814689534821458	0.4457829967975274	0.743294676501166	1.3190020082348333	0.18634643154826214	1.1264903987591108	1.4552795987803304	0.09577139293631545	1.453131102469104	1.694668180918053	0.2981441095173469
270	4.5	1.364258500441516	1.1620877100815004	0.4545396486990267	1.805271963754559	1.0881544086677677	0.43822628836915484	2.1413997979709283	0.9282645449409768	0.35670006619482786	2.4517587966295276	1.1624593010967001	0.3431909929642732	2.4050037923924004	1.0853353372775925	0.4344012435941279	2.1492952365660463	0.88076607508087	0.3473907208397785	1.3665464848393394	1.211244024393205	0.1783846124092517	1.767531310074967	1.062177925612294	0.1816405389530688	2.0813901204803247	0.858076888806498	0.16497006611585852	2.4786125224983095	1.2325774150738438	0.1612053638903915	2.329196309829538	1.0517189851069277	0.09713125286020946	2.075338600862794	0.7251343219753321	0.18065765550349977	0.6775516806428301	1.161710616447255	0.3733591027873582	0.34092368695675157	1.4295989947297063	0.44013558563920246	0.5753461985987123	1.609448010419832	0.44360643945059663	0.7570920097133437	1.1915888102095282	0.5658968970021461	1.096359071635301	1.1873932850935762	0.5810003948491406	1.4144816797098845	1.5338897417320256	0.4347099855620901	0.7387781886829868	1.2809945767681283	0.17971292626515725	1.1249575668121266	1.4743417606737381	0.09474768951244028	1.4499432007937494	1.7378448375495583	0.29080860200242525
